<svg  class="intro__scroll"  x="0px" y="0px" viewBox="0 0 30 50" style="enable-background:new 0 0 30 50;overflow:hidden;" xml:space="preserve">
                <path d="M15,50C6.7,50,0,43.3,0,35V15C0,6.7,6.7,0,15,0c8.3,0,15,6.7,15,15v20C30,43.3,23.3,50,15,50z M15,2C7.8,2,2,7.8,2,15v20c0,7.2,5.8,13,13,13c7.2,0,13-5.8,13-13V15C28,7.8,22.2,2,15,2z"/>
                <path d="M15,10L15,10c1.1,0,2,0.9,2,2v6c0,1.1-0.9,2-2,2l0,0c-1.1,0-2-0.9-2-2v-6C13,10.9,13.9,10,15,10z" class="mouse-wheel"/>
              </svg>
